<svg xmlns="http://www.w3.org/2000/svg" viewBox="0 0 64 64" fill="none">
  <circle cx="32" cy="32" r="32" fill="#2A1D1D"/>
  <circle cx="32" cy="32" r="28" fill="#C05040" fill-opacity="0.18"/>
  <path d="M18 31.5L32 19L46 31.5V45C46 46.1046 45.1046 47 44 47H20C18.8954 47 18 46.1046 18 45V31.5Z" fill="#F2D9D6"/>
  <path d="M14 32L32 16L50 32" stroke="#F5EAD6" stroke-width="3.5" stroke-linecap="round" stroke-linejoin="round"/>
  <rect x="27" y="34" width="10" height="13" rx="2" fill="#C05040"/>
  <path d="M32 27.5C35.0376 27.5 37.5 25.0376 37.5 22C37.5 18.9624 35.0376 16.5 32 16.5C28.9624 16.5 26.5 18.9624 26.5 22C26.5 25.0376 28.9624 27.5 32 27.5Z" fill="#F5EAD6" fill-opacity="0.92"/>
</svg>
